# File created by Blade
# Date/Time:  Wed Jan 21 15:55:51 2015
# Frame Rate: 120.000 fps
#------------------------------------------------------
:FULLY-SPECIFIED
:DEGREES
412
root 24.475434 14.689930 -14.489922 -162.268906 12.702155 -197.829222
Spine 61.877950 -2.444601 -7.105724
Head -9.642297 -4.469850 0.723612
LeftShoulder 17.739718 -34.672943 -2.582128
LeftArm 26.662538 20.900606 -64.345754
LeftForeArm -36.591607 -0.000000 43.720769
LeftHand -12.009852 0.000000 16.056764
LeftHandThumb1 -26.253704 0.000000 33.147579
RightShoulder 8.137863 0.211906 -8.053407
RightArm 32.501545 5.713155 47.407881
RightForeArm -33.481014 -0.000000 50.967579
RightHand -5.160368 -0.000000 -52.771227
RightHandThumb1 -24.326973 -0.000000 -32.862282
LeftUpLeg -5.218617 40.186469 39.549435
LeftLeg -0.922301 -0.000000 0.000000
LeftFoot -2.463216 17.859912 -27.601685
LeftToeBase 45.493894 -0.000000 -0.000000
RightUpLeg -114.541774 -17.569179 -1.743138
RightLeg 137.945990 -0.000000 -0.000000
RightFoot -68.525953 -31.965541 37.022526
RightToeBase 21.255474 -0.000000 -0.000000
413
root 24.492863 14.657076 -14.469163 -162.284579 12.654925 -197.793283
Spine 61.910454 -2.497999 -6.960116
Head -9.678263 -4.554660 0.884608
LeftShoulder 17.825075 -34.771756 -2.600090
LeftArm 26.310219 20.780691 -64.509661
LeftForeArm -36.587556 -0.000000 44.161465
LeftHand -12.066064 -0.000000 16.124723
LeftHandThumb1 -26.253704 0.000000 33.147579
RightShoulder 8.021049 0.340304 -7.804592
RightArm 32.047695 5.922701 48.471706
RightForeArm -31.759618 -0.000000 51.087044
RightHand -5.018641 -0.000000 -53.277800
RightHandThumb1 -24.326973 -0.000000 -32.862282
LeftUpLeg -5.304270 40.081013 39.667680
LeftLeg -0.774974 -0.000000 0.000000
LeftFoot -2.548776 17.883827 -27.726612
LeftToeBase 45.454196 -0.000000 -0.000000
RightUpLeg -114.619964 -17.459985 -1.633375
RightLeg 138.007835 -0.000000 -0.000000
RightFoot -68.713532 -32.058440 37.160224
RightToeBase 21.283393 -0.000000 -0.000000
414
root 24.510716 14.624442 -14.446595 -162.265187 12.643032 -197.761722
Spine 61.874457 -2.551262 -6.909530
Head -9.650515 -4.577613 1.062760
LeftShoulder 17.759954 -34.795517 -2.564863
LeftArm 26.111887 20.737110 -64.538742
LeftForeArm -36.648405 -0.000000 44.505796
LeftHand -12.156957 -0.000000 16.241770
LeftHandThumb1 -26.253704 0.000000 33.147579
RightShoulder 7.978545 0.381630 -7.547611
RightArm 31.615477 6.134392 49.517993
RightForeArm -29.885746 -0.000000 51.304349
RightHand -5.354559 -0.000000 -53.388497
RightHandThumb1 -24.326973 -0.000000 -32.862282
LeftUpLeg -5.389838 40.032899 39.755141
LeftLeg -0.657225 -0.000000 0.000000
LeftFoot -2.574095 17.938173 -27.709122
LeftToeBase 45.400468 -0.000000 -0.000000
RightUpLeg -114.737460 -17.301680 -1.527413
RightLeg 138.055291 -0.000000 -0.000000
RightFoot -68.923994 -32.202977 37.349797
RightToeBase 21.299725 -0.000000 -0.000000
415
root 24.523665 14.593495 -14.432318 -162.329576 12.649848 -197.799351
Spine 61.896670 -2.575585 -6.874002
Head -9.592285 -4.642905 1.177370
LeftShoulder 17.685495 -34.692680 -2.535101
LeftArm 26.110593 20.729282 -64.383932
LeftForeArm -36.567272 0.000000 44.786701
LeftHand -12.315150 -0.000000 15.877288
LeftHandThumb1 -26.253704 0.000000 33.147579
RightShoulder 7.848687 0.264056 -7.343025
RightArm 31.371540 6.446990 50.653919
RightForeArm -27.865194 -0.000000 51.314267
RightHand -5.636047 -0.000000 -53.566380
RightHandThumb1 -24.326973 -0.000000 -32.862282
LeftUpLeg -5.374067 39.981842 39.797178
LeftLeg -0.605963 -0.000000 0.000000
LeftFoot -2.566566 17.981363 -27.651430
LeftToeBase 45.393710 -0.000000 -0.000000
RightUpLeg -114.784598 -17.184346 -1.515139
RightLeg 138.116689 -0.000000 -0.000000
RightFoot -69.080369 -32.299853 37.400043
RightToeBase 21.196553 -0.000000 -0.000000
416
root 24.535530 14.563794 -14.419268 -162.406420 12.625032 -197.873479
Spine 61.900769 -2.625981 -6.852066
Head -9.478996 -4.758175 1.304338
LeftShoulder 17.668034 -34.523320 -2.550692
LeftArm 26.197748 20.709278 -64.199997
LeftForeArm -36.777648 -0.000000 45.002033
LeftHand -12.392234 -0.000000 15.967469
LeftHandThumb1 -26.253704 0.000000 33.147579
RightShoulder 7.720486 0.045542 -7.091658
RightArm 31.172384 6.723906 51.674283
RightForeArm -25.308356 -0.000000 51.201538
RightHand -5.448235 -0.000000 -54.043333
RightHandThumb1 -24.326973 -0.000000 -32.862282
LeftUpLeg -5.395142 39.926025 39.776939
LeftLeg -0.569449 -0.000000 0.000000
LeftFoot -2.532291 18.055088 -27.538875
LeftToeBase 45.387797 -0.000000 -0.000000
RightUpLeg -114.841525 -17.130074 -1.529647
RightLeg 138.198920 -0.000000 -0.000000
RightFoot -69.229931 -32.366455 37.495150
RightToeBase 21.228323 -0.000000 -0.000000
417
root 24.553205 14.540164 -14.402134 -162.441018 12.623314 -197.871122
Spine 61.901323 -2.690219 -6.852732
Head -9.426456 -4.758139 1.419445
LeftShoulder 17.613133 -34.572171 -2.580778
LeftArm 26.074134 20.847429 -63.978921
LeftForeArm -37.026694 -0.000000 45.259964
LeftHand -12.490669 -0.000000 15.974472
LeftHandThumb1 -26.253704 0.000000 33.147579
RightShoulder 7.725707 0.017412 -6.841913
RightArm 30.708406 6.856946 52.593368
RightForeArm -22.836743 -0.000000 51.192092
RightHand -5.533556 -0.000000 -53.910210
RightHandThumb1 -24.326973 -0.000000 -32.862282
LeftUpLeg -5.396459 39.911502 39.828409
LeftLeg -0.553931 -0.000000 0.000000
LeftFoot -2.451969 18.161722 -27.463832
LeftToeBase 45.312566 -0.000000 -0.000000
RightUpLeg -114.903862 -17.013317 -1.449577
RightLeg 138.246527 -0.000000 -0.000000
RightFoot -69.398206 -32.383463 37.613911
RightToeBase 21.334210 -0.000000 -0.000000
418
root 24.569982 14.518358 -14.383779 -162.479153 12.622304 -197.862132
Spine 61.890110 -2.738453 -6.781802
Head -9.338880 -4.828043 1.486128
LeftShoulder 17.530084 -34.286270 -2.621652
LeftArm 26.391955 20.977800 -63.473867
LeftForeArm -37.473779 -0.000000 45.445265
LeftHand -12.463996 -0.000000 16.102217
LeftHandThumb1 -26.253704 0.000000 33.147579
RightShoulder 7.660599 -0.142757 -6.610934
RightArm 30.366440 7.023761 53.486678
RightForeArm -20.274581 -0.000000 51.064505
RightHand -5.699756 0.000000 -53.962434
RightHandThumb1 -24.326973 -0.000000 -32.862282
LeftUpLeg -5.384859 39.902400 39.883448
LeftLeg -0.553860 -0.000000 0.000000
LeftFoot -2.379125 18.238272 -27.361647
LeftToeBase 45.162243 -0.000000 -0.000000
RightUpLeg -114.953907 -16.897448 -1.388738
RightLeg 138.275410 -0.000000 -0.000000
RightFoot -69.483532 -32.569932 37.686991
RightToeBase 21.241382 -0.000000 -0.000000
419
root 24.586024 14.496729 -14.367265 -162.512335 12.574930 -197.881418
Spine 61.889374 -2.814505 -6.776821
Head -9.318754 -4.807378 1.669777
LeftShoulder 17.753890 -35.031395 -2.773823
LeftArm 25.396033 21.242494 -63.766632
LeftForeArm -37.605222 -0.000000 45.755604
LeftHand -12.451575 -0.000000 16.217444
LeftHandThumb1 -26.253704 0.000000 33.147579
RightShoulder 7.575823 -0.186630 -6.305538
RightArm 29.949056 7.057162 54.274727
RightForeArm -17.562996 0.000000 50.890325
RightHand -6.252947 -0.000000 -53.824346
RightHandThumb1 -24.326973 -0.000000 -32.862282
LeftUpLeg -5.420300 39.852477 39.892835
LeftLeg -0.565099 -0.000000 0.000000
LeftFoot -2.339057 18.326095 -27.319961
LeftToeBase 45.172968 -0.000000 -0.000000
RightUpLeg -115.032209 -16.847087 -1.323867
RightLeg 138.331096 -0.000000 -0.000000
RightFoot -69.608126 -32.559599 37.787462
RightToeBase 21.400526 -0.000000 -0.000000
420
root 24.604551 14.479454 -14.349199 -162.574864 12.567943 -197.862474
Spine 61.922578 -2.833152 -6.706301
Head -9.283524 -4.852256 1.783486
LeftShoulder 17.797664 -35.092365 -2.806226
LeftArm 25.311275 21.363730 -63.566920
LeftForeArm -37.883879 -0.000000 45.915871
LeftHand -12.521441 -0.000000 16.296594
LeftHandThumb1 -26.253704 0.000000 33.147579
RightShoulder 7.480535 -0.434485 -6.061860
RightArm 29.705601 7.156005 55.041908
RightForeArm -15.192853 -0.000000 50.529979
RightHand -7.022658 -0.000000 -54.251231
RightHandThumb1 -24.326973 -0.000000 -32.862282
LeftUpLeg -5.375017 39.837047 39.970716
LeftLeg -0.589467 -0.000000 0.000000
LeftFoot -2.291100 18.407280 -27.298699
LeftToeBase 45.216446 -0.000000 -0.000000
RightUpLeg -115.046972 -16.730498 -1.252663
RightLeg 138.357865 -0.000000 -0.000000
RightFoot -69.676163 -32.741823 37.882156
RightToeBase 21.267294 -0.000000 -0.000000
421
root 24.617139 14.467447 -14.326997 -162.589707 12.620431 -197.860215
Spine 61.885161 -2.825931 -6.652369
Head -9.246047 -4.929639 1.842489
LeftShoulder 17.786298 -34.964845 -2.839969
LeftArm 25.470378 21.428529 -63.240503
LeftForeArm -38.163412 -0.000000 45.977891
LeftHand -12.547359 -0.000000 16.198483
LeftHandThumb1 -26.253704 0.000000 33.147579
RightShoulder 7.397857 -0.478259 -5.844355
RightArm 29.262738 7.164534 55.827223
RightForeArm -12.879099 -0.000000 50.088847
RightHand -7.439512 0.000000 -53.930343
RightHandThumb1 -24.326973 -0.000000 -32.862282
LeftUpLeg -5.346049 39.876113 39.991790
LeftLeg -0.603148 -0.000000 0.000000
LeftFoot -2.231945 18.458192 -27.161299
LeftToeBase 45.075709 -0.000000 -0.000000
RightUpLeg -115.093549 -16.563122 -1.193248
RightLeg 138.346562 -0.000000 -0.000000
RightFoot -69.729832 -33.096509 37.829407
RightToeBase 21.194757 -0.000000 -0.000000
422
root 24.632505 14.454743 -14.307998 -162.613825 12.629576 -197.838929
Spine 61.860616 -2.880122 -6.603839
Head -9.205450 -4.957535 1.915056
LeftShoulder 17.814543 -34.985203 -2.908401
LeftArm 25.408493 21.507371 -63.009316
LeftForeArm -38.418156 0.000000 46.071689
LeftHand -12.583152 -0.000000 16.203720
LeftHandThumb1 -26.253704 0.000000 33.147579
RightShoulder 7.373333 -0.485680 -5.630938
RightArm 28.761036 7.150389 56.565898
RightForeArm -10.659238 -0.000000 49.486824
RightHand -7.553205 0.000000 -53.696811
RightHandThumb1 -24.326973 -0.000000 -32.862282
LeftUpLeg -5.333986 39.870560 40.047790
LeftLeg -0.596399 -0.000000 0.000000
LeftFoot -2.202124 18.494987 -27.081113
LeftToeBase 45.031013 -0.000000 -0.000000
RightUpLeg -115.168891 -16.438808 -1.074105
RightLeg 138.338302 -0.000000 -0.000000
RightFoot -69.940919 -33.243679 37.934062
RightToeBase 21.689967 -0.000000 -0.000000
423
root 24.645866 14.442831 -14.289453 -162.656187 12.637136 -197.839373
Spine 61.836678 -2.933580 -6.572447
Head -9.135461 -5.043910 2.021293
LeftShoulder 17.914183 -35.079823 -2.986661
LeftArm 25.212680 21.560430 -62.857805
LeftForeArm -38.676631 0.000000 46.171531
LeftHand -12.623686 -0.000000 16.185281
LeftHandThumb1 -26.253704 0.000000 33.147579
RightShoulder 7.334541 -0.673836 -5.395744
RightArm 28.442968 7.232153 57.261028
RightForeArm -8.565199 -0.000000 48.859843
RightHand -7.997264 -0.000000 -53.597337
RightHandThumb1 -24.326973 -0.000000 -32.862282
LeftUpLeg -5.317728 39.842252 40.084087
LeftLeg -0.599250 -0.000000 0.000000
LeftFoot -2.227179 18.572015 -27.078904
LeftToeBase 45.245133 -0.000000 -0.000000
RightUpLeg -115.220401 -16.346341 -1.019257
RightLeg 138.354154 -0.000000 -0.000000
RightFoot -69.939188 -33.221473 38.051993
RightToeBase 21.392089 -0.000000 -0.000000
